<svg xmlns="http://www.w3.org/2000/svg" width="267" height="171" fill="none" viewBox="0 0 267 171"><rect width="153" height="169" x="1" y="1" stroke="#3289F1" stroke-width="2" rx="9" transform="translate(112)"/><g filter="url(#filter0_d)"><rect width="38" height="44" fill="#F2F2F2" rx="5" transform="translate(125 12)"/><path fill="#5C5E9A" d="M0 5C0 2.23858 2.23858 0 5 0H33C35.7614 0 38 2.23858 38 5V22H0V5Z" transform="translate(125 12)"/><rect width="16" height="3" fill="#C4C4C4" rx="1" transform="translate(130 38)"/><rect width="13.818" height="2.551" fill="#89BFFF" rx="1" transform="translate(129.605 44)"/></g><g filter="url(#filter1_d)"><rect width="38" height="44" fill="#F2F2F2" rx="5" transform="translate(171 12)"/><path fill="#737592" d="M0 5C0 2.23858 2.23858 0 5 0H33C35.7614 0 38 2.23858 38 5V22H0V5Z" transform="translate(171 12)"/><rect width="16" height="3" fill="#C4C4C4" rx="1" transform="translate(176 38)"/><rect width="13.818" height="2.551" fill="#89BFFF" rx="1" transform="translate(175.605 44)"/></g><g filter="url(#filter2_d)"><rect width="38" height="44" fill="#F2F2F2" rx="5" transform="translate(217 12)"/><path fill="#434456" d="M0 5C0 2.23858 2.23858 0 5 0H33C35.7614 0 38 2.23858 38 5V22H0V5Z" transform="translate(217 12)"/><rect width="16" height="3" fill="#C4C4C4" rx="1" transform="translate(222 38)"/><rect width="13.818" height="2.551" fill="#89BFFF" rx="1" transform="translate(221.605 44)"/></g><g filter="url(#filter3_d)"><rect width="38" height="44" fill="#F2F2F2" rx="5" transform="translate(125 63)"/><path fill="#434456" d="M0 5C0 2.23858 2.23858 0 5 0H33C35.7614 0 38 2.23858 38 5V22H0V5Z" transform="translate(125 63)"/><rect width="16" height="3" fill="#C4C4C4" rx="1" transform="translate(130 89)"/><rect width="13.818" height="2.551" fill="#89BFFF" rx="1" transform="translate(129.605 95)"/></g><g filter="url(#filter4_d)"><rect width="38" height="44" fill="#F2F2F2" rx="5" transform="translate(171 63)"/><path fill="#5C5E9A" d="M0 5C0 2.23858 2.23858 0 5 0H33C35.7614 0 38 2.23858 38 5V22H0V5Z" transform="translate(171 63)"/><rect width="16" height="3" fill="#C4C4C4" rx="1" transform="translate(176 89)"/><rect width="13.818" height="2.551" fill="#89BFFF" rx="1" transform="translate(175.605 95)"/></g><g filter="url(#filter5_d)"><rect width="38" height="44" fill="#F2F2F2" rx="5" transform="translate(217 63)"/><path fill="#4E6B77" d="M0 5C0 2.23858 2.23858 0 5 0H33C35.7614 0 38 2.23858 38 5V22H0V5Z" transform="translate(217 63)"/><rect width="16" height="3" fill="#C4C4C4" rx="1" transform="translate(222 89)"/><rect width="13.818" height="2.551" fill="#89BFFF" rx="1" transform="translate(221.605 95)"/></g><g filter="url(#filter6_d)"><rect width="38" height="44" fill="#F2F2F2" rx="5" transform="translate(125 114)"/><path fill="#4E6B77" d="M0 5C0 2.23858 2.23858 0 5 0H33C35.7614 0 38 2.23858 38 5V22H0V5Z" transform="translate(125 114)"/><rect width="16" height="3" fill="#C4C4C4" rx="1" transform="translate(130 140)"/><rect width="13.818" height="2.551" fill="#89BFFF" rx="1" transform="translate(129.605 146)"/></g><g filter="url(#filter7_d)"><rect width="38" height="44" fill="#F2F2F2" rx="5" transform="translate(171 114)"/><path fill="#434456" d="M0 5C0 2.23858 2.23858 0 5 0H33C35.7614 0 38 2.23858 38 5V22H0V5Z" transform="translate(171 114)"/><rect width="16" height="3" fill="#C4C4C4" rx="1" transform="translate(176 140)"/><rect width="13.818" height="2.551" fill="#89BFFF" rx="1" transform="translate(175.605 146)"/></g><g filter="url(#filter8_d)"><rect width="38" height="44" fill="#F2F2F2" rx="5" transform="translate(217 114)"/><path fill="#737492" d="M0 5C0 2.23858 2.23858 0 5 0H33C35.7614 0 38 2.23858 38 5V22H0V5Z" transform="translate(217 114)"/><rect width="16" height="3" fill="#C4C4C4" rx="1" transform="translate(222 140)"/><rect width="13.818" height="2.551" fill="#89BFFF" rx="1" transform="translate(221.605 146)"/></g><rect width="68" height="76" x="-1" y="-1" fill="#F2F2F2" stroke="#3289F1" stroke-width="2" rx="6" transform="translate(2 50)"/><path fill="#F6F6F6" d="M0 5C0 2.23858 2.23858 0 5 0H59C61.7614 0 64 2.23858 64 5V15H0V5Z" transform="translate(3 51)"/><rect width="6" height="4" fill="#89BFFF" rx="2" transform="translate(57 70)"/><rect width="6" height="4" fill="#89BFFF" rx="2" transform="translate(57 83)"/><rect width="6" height="4" fill="#89BFFF" rx="2" transform="translate(57 95)"/><rect width="6" height="4" fill="#89BFFF" rx="2" transform="translate(57 107)"/><rect width="18" height="4" fill="#E0E0E0" rx="1" transform="translate(18 70)"/><rect width="18" height="4" fill="#E0E0E0" rx="1" transform="translate(18 56)"/><rect width="18" height="4" fill="#E0E0E0" transform="translate(18 83)"/><rect width="18" height="4" fill="#E0E0E0" transform="translate(18 95)"/><rect width="18" height="4" fill="#E0E0E0" transform="translate(18 107)"/><circle cx="3" cy="3" r="3" fill="#E0E0E0" transform="translate(7 70)"/><circle cx="3" cy="3" r="3" fill="#3289F1" transform="translate(7 55)"/><circle cx="3" cy="3" r="3" fill="#E0E0E0" transform="translate(7 82)"/><circle cx="3" cy="3" r="3" fill="#E0E0E0" transform="translate(7 94)"/><circle cx="3" cy="3" r="3" fill="#E0E0E0" transform="translate(7 106)"/><path fill="#3289F1" d="M22.7368 20V21.3333C22.7368 22.8 21.6 24 20.2105 24H2.52632C1.12421 24 0 22.8 0 21.3333V2.66667C0 1.2 1.12421 0 2.52632 0H20.2105C21.6 0 22.7368 1.2 22.7368 2.66667V4H11.3684C9.96632 4 8.8421 5.2 8.8421 6.66667V17.3333C8.8421 18.8 9.96632 20 11.3684 20H22.7368ZM11.3684 17.3333H24V6.66667H11.3684V17.3333ZM16.4211 14C15.3726 14 14.5263 13.1067 14.5263 12C14.5263 10.8933 15.3726 10 16.4211 10C17.4695 10 18.3158 10.8933 18.3158 12C18.3158 13.1067 17.4695 14 16.4211 14Z" transform="translate(24 16)"/><line x2="42" y1="-1" y2="-1" stroke="#3289F1" stroke-width="2" transform="translate(70 86)"/><defs><filter id="filter0_d" width="42" height="48" x="123" y="11" color-interpolation-filters="sRGB" filterUnits="userSpaceOnUse"><feFlood flood-opacity="0" result="BackgroundImageFix"/><feColorMatrix in="SourceAlpha" type="matrix" values="0 0 0 0 0 0 0 0 0 0 0 0 0 0 0 0 0 0 255 0"/><feOffset dy="1"/><feGaussianBlur stdDeviation="1"/><feColorMatrix type="matrix" values="0 0 0 0 0 0 0 0 0 0 0 0 0 0 0 0 0 0 0.25 0"/><feBlend in2="BackgroundImageFix" mode="normal" result="effect1_dropShadow"/><feBlend in="SourceGraphic" in2="effect1_dropShadow" mode="normal" result="shape"/></filter><filter id="filter1_d" width="42" height="48" x="169" y="11" color-interpolation-filters="sRGB" filterUnits="userSpaceOnUse"><feFlood flood-opacity="0" result="BackgroundImageFix"/><feColorMatrix in="SourceAlpha" type="matrix" values="0 0 0 0 0 0 0 0 0 0 0 0 0 0 0 0 0 0 255 0"/><feOffset dy="1"/><feGaussianBlur stdDeviation="1"/><feColorMatrix type="matrix" values="0 0 0 0 0 0 0 0 0 0 0 0 0 0 0 0 0 0 0.25 0"/><feBlend in2="BackgroundImageFix" mode="normal" result="effect1_dropShadow"/><feBlend in="SourceGraphic" in2="effect1_dropShadow" mode="normal" result="shape"/></filter><filter id="filter2_d" width="42" height="48" x="215" y="11" color-interpolation-filters="sRGB" filterUnits="userSpaceOnUse"><feFlood flood-opacity="0" result="BackgroundImageFix"/><feColorMatrix in="SourceAlpha" type="matrix" values="0 0 0 0 0 0 0 0 0 0 0 0 0 0 0 0 0 0 255 0"/><feOffset dy="1"/><feGaussianBlur stdDeviation="1"/><feColorMatrix type="matrix" values="0 0 0 0 0 0 0 0 0 0 0 0 0 0 0 0 0 0 0.25 0"/><feBlend in2="BackgroundImageFix" mode="normal" result="effect1_dropShadow"/><feBlend in="SourceGraphic" in2="effect1_dropShadow" mode="normal" result="shape"/></filter><filter id="filter3_d" width="42" height="48" x="123" y="62" color-interpolation-filters="sRGB" filterUnits="userSpaceOnUse"><feFlood flood-opacity="0" result="BackgroundImageFix"/><feColorMatrix in="SourceAlpha" type="matrix" values="0 0 0 0 0 0 0 0 0 0 0 0 0 0 0 0 0 0 255 0"/><feOffset dy="1"/><feGaussianBlur stdDeviation="1"/><feColorMatrix type="matrix" values="0 0 0 0 0 0 0 0 0 0 0 0 0 0 0 0 0 0 0.25 0"/><feBlend in2="BackgroundImageFix" mode="normal" result="effect1_dropShadow"/><feBlend in="SourceGraphic" in2="effect1_dropShadow" mode="normal" result="shape"/></filter><filter id="filter4_d" width="42" height="48" x="169" y="62" color-interpolation-filters="sRGB" filterUnits="userSpaceOnUse"><feFlood flood-opacity="0" result="BackgroundImageFix"/><feColorMatrix in="SourceAlpha" type="matrix" values="0 0 0 0 0 0 0 0 0 0 0 0 0 0 0 0 0 0 255 0"/><feOffset dy="1"/><feGaussianBlur stdDeviation="1"/><feColorMatrix type="matrix" values="0 0 0 0 0 0 0 0 0 0 0 0 0 0 0 0 0 0 0.25 0"/><feBlend in2="BackgroundImageFix" mode="normal" result="effect1_dropShadow"/><feBlend in="SourceGraphic" in2="effect1_dropShadow" mode="normal" result="shape"/></filter><filter id="filter5_d" width="42" height="48" x="215" y="62" color-interpolation-filters="sRGB" filterUnits="userSpaceOnUse"><feFlood flood-opacity="0" result="BackgroundImageFix"/><feColorMatrix in="SourceAlpha" type="matrix" values="0 0 0 0 0 0 0 0 0 0 0 0 0 0 0 0 0 0 255 0"/><feOffset dy="1"/><feGaussianBlur stdDeviation="1"/><feColorMatrix type="matrix" values="0 0 0 0 0 0 0 0 0 0 0 0 0 0 0 0 0 0 0.25 0"/><feBlend in2="BackgroundImageFix" mode="normal" result="effect1_dropShadow"/><feBlend in="SourceGraphic" in2="effect1_dropShadow" mode="normal" result="shape"/></filter><filter id="filter6_d" width="42" height="48" x="123" y="113" color-interpolation-filters="sRGB" filterUnits="userSpaceOnUse"><feFlood flood-opacity="0" result="BackgroundImageFix"/><feColorMatrix in="SourceAlpha" type="matrix" values="0 0 0 0 0 0 0 0 0 0 0 0 0 0 0 0 0 0 255 0"/><feOffset dy="1"/><feGaussianBlur stdDeviation="1"/><feColorMatrix type="matrix" values="0 0 0 0 0 0 0 0 0 0 0 0 0 0 0 0 0 0 0.25 0"/><feBlend in2="BackgroundImageFix" mode="normal" result="effect1_dropShadow"/><feBlend in="SourceGraphic" in2="effect1_dropShadow" mode="normal" result="shape"/></filter><filter id="filter7_d" width="42" height="48" x="169" y="113" color-interpolation-filters="sRGB" filterUnits="userSpaceOnUse"><feFlood flood-opacity="0" result="BackgroundImageFix"/><feColorMatrix in="SourceAlpha" type="matrix" values="0 0 0 0 0 0 0 0 0 0 0 0 0 0 0 0 0 0 255 0"/><feOffset dy="1"/><feGaussianBlur stdDeviation="1"/><feColorMatrix type="matrix" values="0 0 0 0 0 0 0 0 0 0 0 0 0 0 0 0 0 0 0.25 0"/><feBlend in2="BackgroundImageFix" mode="normal" result="effect1_dropShadow"/><feBlend in="SourceGraphic" in2="effect1_dropShadow" mode="normal" result="shape"/></filter><filter id="filter8_d" width="42" height="48" x="215" y="113" color-interpolation-filters="sRGB" filterUnits="userSpaceOnUse"><feFlood flood-opacity="0" result="BackgroundImageFix"/><feColorMatrix in="SourceAlpha" type="matrix" values="0 0 0 0 0 0 0 0 0 0 0 0 0 0 0 0 0 0 255 0"/><feOffset dy="1"/><feGaussianBlur stdDeviation="1"/><feColorMatrix type="matrix" values="0 0 0 0 0 0 0 0 0 0 0 0 0 0 0 0 0 0 0.25 0"/><feBlend in2="BackgroundImageFix" mode="normal" result="effect1_dropShadow"/><feBlend in="SourceGraphic" in2="effect1_dropShadow" mode="normal" result="shape"/></filter></defs></svg>