<svg xmlns="http://www.w3.org/2000/svg" width="71" height="92" fill="none" viewBox="0 0 71 92"><path fill-rule="evenodd" stroke="#CAC9EB" stroke-width="3.425" d="M2 21.4738V60.1274L35.6375 79.6018L69.1275 60.1274V21.4738L35.6375 1.99939L2 21.4738Z" clip-rule="evenodd"/><path stroke="#CAC9EB" stroke-width="3.425" d="M2 21.4737L35.6375 39.1777L69.1275 21.4737"/><path stroke="#CAC9EB" stroke-width="3.425" d="M35.6333 60.1273L35.6389 79.6017"/><path fill-rule="evenodd" stroke="#CAC9EB" stroke-linejoin="round" stroke-width="3.425" d="M2 60.1273H69.1275L35.6375 1.99927L2 60.1273Z" clip-rule="evenodd"/><path fill="#2832E1" d="M35.7242 91.9992C43.0515 91.9992 48.9914 86.0593 48.9914 78.732C48.9914 71.4048 43.0515 65.4648 35.7242 65.4648C28.3969 65.4648 22.457 71.4048 22.457 78.732C22.457 86.0593 28.3969 91.9992 35.7242 91.9992Z" opacity=".168"/><path fill="#2832E1" d="M35.726 85.1552C39.2735 85.1552 42.1493 82.2794 42.1493 78.7319C42.1493 75.1844 39.2735 72.3086 35.726 72.3086C32.1785 72.3086 29.3027 75.1844 29.3027 78.7319C29.3027 82.2794 32.1785 85.1552 35.726 85.1552Z"/><path stroke="#2832E1" stroke-width="3.425" d="M19.1133 30.3254L35.637 39.1774L52.0132 30.3254"/><path stroke="#2832E1" stroke-width="3.425" d="M52.0137 31.4021L35.49 22.5501L19.1138 31.4021"/><path fill-rule="evenodd" stroke="#2832E1" stroke-linejoin="round" stroke-width="3.425" d="M35.6361 1.99927L19.1445 30.4978L35.6361 60.1273L52.0553 30.4978L35.6361 1.99927Z" clip-rule="evenodd"/><path stroke="#2832E1" stroke-width="3.425" d="M35.6367 1.99927V60.1273"/></svg>