<svg xmlns="http://www.w3.org/2000/svg" width="62" height="62" fill="none" viewBox="0 0 62 62"><path stroke="#fff" stroke-miterlimit="10" stroke-width="2.5" d="M31 60C47.0163 60 60 47.0163 60 31C60 14.9837 47.0163 2 31 2C14.9837 2 2 14.9837 2 31C2 47.0163 14.9837 60 31 60Z"/><path stroke="#fff" stroke-miterlimit="10" stroke-width="3" d="M48.3159 26.5213L31.1692 49.7925L14 26.5213L16.854 19.5693H31.1692H45.4618L48.3159 26.5213Z"/><path stroke="#fff" stroke-miterlimit="10" stroke-width="3" d="M31.0004 49.7925L24.0742 19.5693"/><path stroke="#fff" stroke-miterlimit="10" stroke-width="3" d="M31 49.7925L37.9261 19.5693"/><path stroke="#fff" stroke-miterlimit="10" stroke-width="3" d="M14 26.8101H48.001"/><path stroke="#fff" stroke-width="3" d="M18 20.5L8.5 12"/><path stroke="#fff" stroke-width="3" d="M15.5 27L2.5 27"/><path stroke="#fff" stroke-width="3" d="M44 20.5L53.5 12"/><path stroke="#fff" stroke-width="3" d="M46.5 27L59.5 27"/><path stroke="#fff" stroke-width="3" d="M40.9995 35.3153L55.5 46.5"/><path stroke="#fff" stroke-width="3" d="M21.5005 35.3153L7 46.5"/><path stroke="#fff" stroke-width="3" d="M26.8774 20.8714L22.5 4.5"/><path stroke="#fff" stroke-width="3" d="M34.271 20.3714L38.6484 4"/></svg>