<svg xmlns="http://www.w3.org/2000/svg" width="404" height="404" fill="none" viewBox="0 0 404 404"><circle cx="202" cy="202" r="200" stroke="#00AE99" stroke-width="3"/><rect width="39" height="92" x="61" y="251" stroke="#00AE99" stroke-width="3" rx="19.5"/><rect width="39" height="92" x="100" y="251" stroke="#00AE99" stroke-width="3" rx="19.5"/><rect width="39" height="92" x="139" y="251" stroke="#00AE99" stroke-width="3" rx="19.5"/><rect width="39" height="39" x="61" y="251" stroke="#00AE99" stroke-width="3" rx="19.5"/><rect width="39" height="39" x="100" y="251" stroke="#00AE99" stroke-width="3" rx="19.5"/><rect width="39" height="39" x="139" y="304" stroke="#00AE99" stroke-width="3" rx="19.5"/><rect width="39" height="39" x="178" y="304" stroke="#00AE99" stroke-width="3" rx="19.5"/><rect width="39" height="92" x="178" y="251" stroke="#00AE99" stroke-width="3" rx="19.5"/><circle cx="100" cy="212" r="39" stroke="#00AE99" stroke-width="3"/><circle cx="178" cy="212" r="39" stroke="#00AE99" stroke-width="3"/><rect width="156" height="94" x="61" y="79" stroke="#00AE99" stroke-width="3"/><rect width="39" height="18" stroke="#00AE99" stroke-width="3" transform="matrix(1 0 0 -1 84 79)"/><rect width="39" height="18" stroke="#00AE99" stroke-width="3" transform="matrix(1 0 0 -1 155 79)"/><path stroke="#00AE99" stroke-width="3" d="M217 94V61H250M217 94L250 61M217 94H250V61M217 94V241.125M250 61H333M333 61H343V251H217V241.125M333 61V241.125H217"/><path stroke="#00AE99" stroke-width="3" d="M275.825 252L218 343H341L275.825 252Z"/></svg>