<svg xmlns="http://www.w3.org/2000/svg" width="80" height="80" fill="none" viewBox="0 0 80 80"><mask id="mask0" width="80" height="80" x="0" y="0" mask-type="alpha" maskUnits="userSpaceOnUse"><path fill="#FFF" stroke="#FFF" stroke-miterlimit="10" stroke-width="2" d="M40 78.9333C61.5023 78.9333 78.9333 61.5023 78.9333 40C78.9333 18.4977 61.5023 1.06665 40 1.06665C18.4977 1.06665 1.06665 18.4977 1.06665 40C1.06665 61.5023 18.4977 78.9333 40 78.9333Z"/></mask><g mask="url(#mask0)"><ellipse cx="40" cy="75" fill="#F3F6F4" stroke="#00AE99" stroke-width="2" rx="8" ry="8"/><ellipse cx="40" cy="70" fill="#F3F6F4" stroke="#00AE99" stroke-width="2" rx="8" ry="8"/><ellipse cx="40" cy="65" fill="#F3F6F4" stroke="#00AE99" stroke-width="2" rx="8" ry="8"/><ellipse cx="40" cy="60" fill="#F3F6F4" stroke="#00AE99" stroke-width="2" rx="8" ry="8"/><ellipse cx="40" cy="55" fill="#F3F6F4" stroke="#00AE99" stroke-width="2" rx="8" ry="8"/><circle cx="40" cy="49" r="8" fill="#F3F6F4" stroke="#00AE99" stroke-width="2"/><circle cx="40" cy="43" r="8" fill="#F3F6F4" stroke="#00AE99" stroke-width="2"/><ellipse cx="17" cy="88" fill="#F3F6F4" stroke="#00AE99" stroke-width="2" rx="8" ry="8"/><ellipse cx="17" cy="83" fill="#F3F6F4" stroke="#00AE99" stroke-width="2" rx="8" ry="8"/><ellipse cx="17" cy="78" fill="#F3F6F4" stroke="#00AE99" stroke-width="2" rx="8" ry="8"/><ellipse cx="17" cy="73" fill="#F3F6F4" stroke="#00AE99" stroke-width="2" rx="8" ry="8"/><ellipse cx="17" cy="68" fill="#F3F6F4" stroke="#00AE99" stroke-width="2" rx="8" ry="8"/><circle cx="17" cy="62" r="8" fill="#F3F6F4" stroke="#00AE99" stroke-width="2"/><circle cx="17" cy="56" r="8" fill="#F3F6F4" stroke="#00AE99" stroke-width="2"/><ellipse cx="63" cy="69" fill="#F3F6F4" stroke="#00AE99" stroke-width="2" rx="8" ry="8"/><ellipse cx="63" cy="63" fill="#F3F6F4" stroke="#00AE99" stroke-width="2" rx="8" ry="8"/><ellipse cx="63" cy="58" fill="#F3F6F4" stroke="#00AE99" stroke-width="2" rx="8" ry="8"/><ellipse cx="63" cy="53" fill="#F3F6F4" stroke="#00AE99" stroke-width="2" rx="8" ry="8"/><ellipse cx="63" cy="48" fill="#F3F6F4" stroke="#00AE99" stroke-width="2" rx="8" ry="8"/><ellipse cx="63" cy="43" fill="#F3F6F4" stroke="#00AE99" stroke-width="2" rx="8" ry="8"/><circle cx="63" cy="37" r="8" fill="#F3F6F4" stroke="#00AE99" stroke-width="2"/><circle cx="63" cy="31" r="8" fill="#F3F6F4" stroke="#00AE99" stroke-width="2"/><circle cx="40" cy="40" r="38.933" stroke="#00AE99" stroke-width="2"/></g></svg>