<svg xmlns="http://www.w3.org/2000/svg" width="90" height="90" fill="none" viewBox="0 0 90 90"><path stroke="#00AE99" stroke-linejoin="bevel" stroke-miterlimit="10" stroke-width="3" d="M45 88C68.7482 88 88 68.7482 88 45C88 21.2518 68.7482 2 45 2C21.2518 2 2 21.2518 2 45C2 68.7482 21.2518 88 45 88Z"/><path stroke="#00AE99" stroke-linejoin="bevel" stroke-miterlimit="10" stroke-width="3" d="M70.2962 31.8956L57.4583 19.3541L44.833 32.1066L57.6708 44.6481L70.2962 31.8956Z"/><path stroke="#00AE99" stroke-linejoin="bevel" stroke-miterlimit="10" stroke-width="3" d="M74.8267 14.5717L57.4829 19.3431L70.311 31.8859L74.8267 14.5717Z"/><path stroke="#00AE99" stroke-linejoin="bevel" stroke-miterlimit="10" stroke-width="3" d="M32.184 19.5506L19.5587 32.3031L32.3965 44.8446L45.0218 32.092L32.184 19.5506Z"/><path stroke="#00AE99" stroke-linejoin="bevel" stroke-miterlimit="10" stroke-width="3" d="M14.7418 15.0572L19.5451 32.2858L32.1719 19.5429L14.7418 15.0572Z"/><path stroke="#00AE99" stroke-linejoin="bevel" stroke-miterlimit="10" stroke-width="3" d="M19.698 57.5441L32.5358 70.0856L45.1612 57.3331L32.3234 44.7916L19.698 57.5441Z"/><path stroke="#00AE99" stroke-linejoin="bevel" stroke-miterlimit="10" stroke-width="3" d="M15.1732 74.8574L32.517 70.086L19.6889 57.5432L15.1732 74.8574Z"/><path stroke="#00AE99" stroke-linejoin="bevel" stroke-miterlimit="10" stroke-width="3" d="M57.8243 69.8803L70.4497 57.1277L57.6119 44.5863L44.9865 57.3388L57.8243 69.8803Z"/><path stroke="#00AE99" stroke-linejoin="bevel" stroke-miterlimit="10" stroke-width="3" d="M75.2581 74.3715L70.4548 57.1429L57.828 69.8857L75.2581 74.3715Z"/></svg>